<?xml version="1.0" encoding="UTF-8"?>
<!DOCTYPE svg PUBLIC "-//W3C//DTD SVG 1.1//EN" "http://www.w3.org/Graphics/SVG/1.1/DTD/svg11.dtd">
<svg version="1.1" xmlns="http://www.w3.org/2000/svg" xmlns:xlink="http://www.w3.org/1999/xlink" x="0" y="0" width="416" height="704" viewBox="0, 0, 416, 704">
  <defs>
    <clipPath id="Clip_1">
      <path d="M0.06,0.083 L415.804,0.083 L415.804,704 L0.06,704 z"/>
    </clipPath>
  </defs>
  <g id="Layer_1">
    <g clip-path="url(#Clip_1)">
      <path d="M299.703,516.762 C295.791,517.512 294.995,519.431 295.989,523.443 C302.673,550.443 305.79,577.79 302.658,605.597 C300.909,621.122 296.738,635.926 288.447,649.318 C286.922,651.781 286.644,654.06 286.955,656.815 C288.067,666.668 287.594,676.45 284.445,685.926 C280.375,698.173 272.336,703.903 259.476,703.821 C255.498,703.796 251.458,704.448 247.543,703.411 C240.421,701.525 235.923,696.579 232.762,690.219 C229.096,682.844 227.383,674.856 225.861,666.864 C225.375,664.315 224.514,663.614 222.061,663.645 C212.733,663.762 203.398,663.827 194.073,663.613 C191.031,663.544 190.077,664.696 189.617,667.458 C188.388,674.846 186.642,682.153 183.473,688.96 C178.985,698.603 172.114,704.266 160.555,703.991 C139.9,703.499 129.372,695.02 128.989,674.165 C128.725,659.789 125.963,646.966 120.009,633.822 C111.574,615.204 110.938,594.772 111.919,574.525 C112.782,556.713 115.511,539.122 119.995,521.861 C120.855,518.551 119.866,517.64 117.196,516.417 C89.431,503.702 62.885,488.95 39.631,468.882 C28.085,458.918 17.861,447.826 11.261,433.834 C3.853,418.13 3.517,402.433 11.365,386.765 C12.182,385.135 12.907,383.792 11.964,381.703 C-8.019,337.444 -1.421,294.749 20.308,253.289 C35.887,223.565 57.265,198.868 86.347,181.463 C89.069,179.834 88.248,178.179 87.947,176.065 C81.827,133.087 82.833,90.45 94.607,48.428 C97.985,36.372 103.171,25.135 110.931,15.071 C125.682,-4.06 161.505,-6.372 178.379,16.892 C187.835,29.929 192.07,44.852 194.557,60.386 C199.355,90.354 198.192,120.448 195.985,150.543 C195.448,157.866 194.86,156.702 201.496,156.748 C207.489,156.789 213.487,156.6 219.472,156.819 C222.697,156.938 223.213,155.901 222.977,152.795 C221.211,129.56 220.006,106.292 221.646,82.998 C222.923,64.87 225.242,46.879 232.763,30.092 C239.623,14.783 249.888,2.965 267.635,0.649 C285.111,-1.632 299.885,3.408 310.375,18.351 C320.442,32.691 325.319,49.086 328.59,65.974 C335.74,102.887 336.803,139.976 330.511,177.128 C329.907,180.696 330.902,182.251 333.727,184.203 C378.244,214.962 405.501,256.943 414.267,310.412 C418.122,333.928 414.608,356.815 405.065,378.717 C404.316,380.435 403.204,381.939 404.476,384.234 C416.672,406.237 412.445,426.805 398.575,446.347 C388.12,461.078 374.408,472.401 359.859,482.811 C358.372,483.875 356.888,484.942 355.403,486.008 C354.575,486.473 353.557,486.453 353.185,485.688 C350.969,481.134 347.208,477.273 346.865,471.864 C347.602,469.594 349.682,468.658 351.408,467.416 C363.498,458.721 374.632,449 383.744,437.14 C387.518,432.229 390.431,426.861 392.416,420.921 C397.209,406.579 392.099,394.779 383.164,384.008 C378.345,378.2 372.64,373.441 365.591,370.31 C349.707,363.253 330.568,373.306 327.487,390.43 C326.808,394.206 327.17,397.923 328.924,401.132 C336.594,415.164 349.006,424.372 367.156,420.893 C371.761,420.011 375.836,420.406 378.687,424.596 C381.98,429.436 380.223,435.455 374.699,437.881 C370.855,439.569 366.748,440.425 362.52,440.145 C358.666,439.891 355.424,441.122 352.253,443.259 C346.457,447.166 340.549,450.932 333.895,453.301 C332.203,453.459 330.97,452.528 330.201,451.257 C327.778,447.254 323.334,444.616 322.361,439.643 C324.028,437.107 326.913,436.406 329.372,435.107 C332.124,433.654 332.333,432.317 329.734,430.478 C325.085,427.187 321.193,423.106 317.767,418.573 C304.921,401.578 305.408,382.602 319.099,365.997 C322.889,362.281 326.43,358.302 331.182,355.686 C347.249,346.842 363.195,347.136 379.071,356.149 C382.257,357.958 385.174,360.165 388.15,362.285 C390.656,365.01 391.877,364.401 393.033,360.945 C399.906,340.401 399.507,319.721 394.4,298.964 C387.788,272.082 374.57,248.659 356.849,227.577 C345.579,214.17 332.382,203.186 317.127,194.605 C311.983,191.712 310.389,188.055 311.758,181.949 C316.192,162.18 317.479,142.123 317.158,121.958 C316.957,109.331 315.643,96.748 314.169,84.199 C311.384,66.762 308.071,49.463 299.457,33.749 C294.896,25.428 288.934,19.085 278.591,17.877 C269.38,16.8 261.895,19.286 255.733,26.052 C251.279,30.944 248.622,36.834 246.483,43.002 C241.872,56.297 239.879,70.063 239.095,84.053 C239.906,95.016 238.198,105.905 238.856,116.938 C239.737,131.698 240.082,146.503 241.25,161.263 C241.957,170.205 238.212,174.322 229.196,174.424 C216.045,174.572 202.891,174.583 189.74,174.42 C180.316,174.302 176.512,169.747 177.436,160.427 C179.751,137.055 180.486,113.621 180.03,90.144 C179.972,87.137 179.204,84.206 179.168,81.212 C178.192,63.5 175.624,46.23 166.441,30.515 C156.419,13.364 132.874,12.547 121.124,30.651 C117.024,36.968 113.97,43.827 111.877,51.034 C108.909,61.251 106.328,71.578 105.018,82.172 C101.797,102.966 101.409,123.92 102.122,144.866 C102.511,156.306 103.967,167.723 106.289,178.996 C107.965,187.133 106.571,190.008 99.265,194.093 C72.459,209.082 52.992,231.172 37.89,257.468 C27.839,274.969 20.838,293.601 18.643,313.737 C16.921,329.534 17.275,345.291 22.47,360.593 C24.412,366.314 24.364,366.33 28.914,362.414 C33.907,358.826 38.841,355.082 44.676,352.951 C48.1,351.7 48.777,349.741 47.714,346.414 C43.464,333.131 51.021,319.295 63.232,313.217 C66.517,311.581 69.824,310.867 73.116,313.234 C77.083,318.323 76.552,322.28 71.426,325.76 C70.049,326.695 68.495,327.34 67.134,328.3 C62.346,331.68 60.228,337.226 62,342.744 C65.016,352.132 71.9,357.792 81.125,359.973 C89.85,362.036 97.976,359.745 104.621,353.41 C108.641,349.578 109.275,344.793 108.112,339.59 C107.6,337.3 106.661,335.177 105.772,333.023 C103.548,327.626 104.18,325.578 109.016,322.071 C114.443,321.457 116.583,322.526 119.189,327.143 C127.995,342.741 123.988,359.102 108.943,368.974 C103.499,372.547 103.498,372.547 105.962,378.683 C111.156,391.618 109.442,403.859 101.898,415.309 C97.005,422.736 91.036,429.179 83.24,433.223 C97.139,440.559 111.986,446.33 127.667,449.982 C143.763,453.73 160.033,455.629 176.532,456.681 C192.184,457.678 207.814,457.66 223.432,457.369 C250.111,456.873 276.585,454.35 302.187,446.056 C303.906,445.5 305.644,444.72 307.513,445.556 C307.999,446.028 308.492,446.637 308.345,447.267 C306.873,453.601 306.382,460.302 301.75,465.498 C290.56,469.508 278.918,471.506 267.208,473.215 C239.056,477.325 210.699,476.796 182.427,476.093 C146.994,475.211 112.544,468.816 80.338,453.139 C74.509,450.302 68.773,447.194 63.465,443.416 C60.513,441.315 57.36,440.123 53.688,440.237 C50.147,440.348 46.715,439.573 43.428,438.318 C38.373,436.389 36.394,432.488 37.59,427.121 C38.622,422.493 42.546,419.91 47.806,420.432 C49.631,420.613 51.394,421.181 53.222,421.36 C69.855,422.984 81.708,414.216 88.484,400.276 C93.268,390.433 86.952,377.566 76.462,374.119 C73.14,373.027 69.746,372.092 66.723,370.262 C62.507,367.711 58.127,367.822 53.754,369.595 C39.26,375.471 29.899,386.383 24.621,400.727 C21.056,410.417 23.6,419.79 28.203,428.654 C34.164,440.132 43.231,449.065 52.92,457.207 C73.987,474.912 97.887,488.138 122.703,499.783 C124.967,500.845 127.323,501.542 129.888,501.717 C138.368,502.297 143.152,509.235 140.186,517.13 C133.727,534.322 131.639,552.273 129.826,570.378 C128.195,586.671 129.463,602.61 133.205,618.449 C135.177,626.798 138.372,634.637 143.214,641.74 C146.061,645.917 147.022,650.218 146.44,655.402 C145.59,662.978 145.143,670.713 147.204,678.246 C148.919,684.512 151.625,686.67 157.744,687.01 C163.281,687.317 166.228,685.21 168.469,679.239 C171.118,672.183 172.417,664.795 173.799,657.423 C175.438,648.678 178.051,646.516 186.968,646.488 C200.965,646.443 214.962,646.447 228.959,646.487 C237.38,646.511 240.451,649.225 241.993,657.723 C243.272,664.77 244.35,671.869 246.827,678.638 C249.167,685.029 252.179,687.327 257.664,686.997 C264.074,686.61 267.137,684.162 268.583,677.414 C269.836,671.565 270.818,665.647 269.657,659.578 C268.33,652.64 269.412,646.414 273.473,640.151 C282.616,626.048 285.384,609.871 286.14,593.415 C287.337,567.377 283.378,541.931 276.31,516.921 C275.672,514.661 275.131,512.403 275.411,510.033 C275.945,505.517 279.168,501.706 283.446,501.932 C287.728,502.159 291.628,500.872 295.711,500.356 C298.853,505.382 300.394,510.8 299.703,516.762" fill="#6E4100"/>
    </g>
    <path d="M301.609,464.768 C304.565,458.805 306.02,452.367 307.553,445.955 C306.683,442.442 308.339,439.548 310.068,436.812 C311.466,434.598 313.806,433.517 316.44,433.993 C319.71,434.585 322.229,436.229 322.715,439.901 C326.252,444.185 329.789,448.469 333.327,452.753 C338.733,458.591 343.663,464.778 347.342,471.881 C349.762,476.742 351.662,481.901 355.405,486.007 C354.429,490.19 356.71,493.961 356.861,498.093 C357.324,510.799 352.831,520.684 341.379,526.409 C329.495,532.349 317.608,531.786 306.643,523.779 C304.02,521.863 301.998,519.124 299.701,516.762 C298.354,511.47 297.006,506.177 295.657,500.885 C294.308,499.634 294.156,497.959 294.25,496.315 C294.877,485.378 297.182,474.823 301.609,464.768" fill="#A8D1E5"/>
    <path d="M97.824,618.363 C97.771,635.364 93.451,646.778 80.153,652.567 C64.109,659.552 41.746,652.268 37.187,632.539 C34.608,621.38 38.395,610.941 44.023,601.602 C52.175,588.076 62.077,575.701 71.79,563.255 C75.667,558.288 80.491,558.629 82.665,564.134 C89.992,582.69 95.798,601.7 97.824,618.363" fill="#A8D1E5"/>
    <path d="M349.52,690.891 C357.645,689.906 366.37,690.183 374.571,686.976 C375.898,686.457 377.879,686.456 378.016,684.676 C378.133,683.153 376.314,682.816 375.206,682.198 C369.048,678.766 362.494,676.531 355.443,675.846 C350.778,675.392 348.106,672.834 348.645,669.027 C349.264,664.65 352.326,663.418 356.289,663.869 C366.675,665.05 376.481,667.996 385.031,674.196 C394.215,680.855 393.254,691.381 383.118,696.505 C377.412,699.39 371.217,700.992 364.98,701.579 C349.077,703.073 333.164,703.215 317.607,698.644 C315.229,697.946 312.89,697.004 310.667,695.906 C300.423,690.848 299.372,678.142 308.657,671.482 C313.34,668.123 318.717,667.254 324.338,667.826 C327.306,668.128 328.605,670.058 328.703,672.951 C328.803,675.919 327.979,678.201 324.705,678.901 C322.118,679.454 319.524,679.996 316.972,680.687 C315.838,680.994 314.821,681.728 314.706,683.071 C314.577,684.575 315.879,684.956 316.872,685.47 C322.297,688.278 328.318,688.807 334.196,689.682 C339.109,690.413 344.12,690.492 349.52,690.891" fill="#A8D1E5"/>
    <path d="M322.715,439.901 C321.708,438.838 320.8,437.653 319.676,436.734 C316.073,433.785 311.94,434.77 310.061,439.058 C309.082,441.294 308.38,443.652 307.553,445.955 C264.76,460.355 220.564,459.929 176.286,458.161 C146.824,456.985 118.274,451.405 91.335,438.921 C88.779,437.737 86.283,436.424 83.776,435.137 C82.894,434.685 82.065,434.13 80.857,433.41 C88.369,428.888 94.567,423.308 99.548,416.352 C108.97,403.192 110.01,389.401 102.698,375.078 C101.209,372.161 101.561,371.188 104.5,369.729 C121.57,361.254 126.717,345.463 118.425,328.362 C116.337,324.057 113.579,321.703 108.617,323.075 C103.924,322.853 99.35,319.29 98.811,315.437 C101.021,313.768 103.71,313.45 106.287,312.896 C119.6,310.033 132.838,306.844 146.132,303.901 C152.608,302.468 153.116,301.732 153.038,295.213 C152.924,285.658 151.927,284.88 142.582,287.066 C128.354,290.395 114.093,293.583 99.813,296.676 C95.83,297.538 92.203,298.881 88.916,301.228 C87.511,301.59 86.292,301.043 85.128,300.38 C76.829,295.647 68.055,294.283 58.67,296.258 C48.644,298.368 39.069,301.162 31.319,308.512 C17.753,321.378 16.993,340.473 26.044,356.137 C27.363,358.418 29.434,360.281 29.912,363.033 C28.115,364.95 26.317,366.868 24.19,369.136 C17.762,353.926 14.794,338.596 16.386,322.921 C22.232,265.352 50.532,221.875 100.092,192.174 C105.358,189.019 106.558,186.686 105.321,180.701 C98.532,147.861 99.113,114.902 103.763,81.88 C105.102,79.38 107.538,79.485 109.843,79.371 C131.208,78.313 152.588,78.151 173.972,78.347 C176.278,78.368 178.66,78.191 180.598,79.871 C182.565,98.288 181.97,116.727 180.915,135.156 C180.383,144.444 179.495,153.712 178.814,162.992 C178.357,169.225 181.657,172.889 187.782,172.904 C201.916,172.939 216.051,172.927 230.185,172.915 C237.609,172.908 240.377,169.933 239.743,162.439 C238.258,144.885 237.157,127.303 236.856,109.695 C236.703,100.743 237.458,91.776 237.803,82.816 C237.907,79.665 239.771,78.43 242.674,78.455 C258.987,78.592 275.318,77.59 291.609,79.024 C297.272,79.522 302.929,79.224 308.587,79.376 C311.818,79.463 314.596,80.084 315.384,83.828 C319.701,114.52 320.252,145.24 314.434,175.759 C311.414,191.602 312.455,189.045 324.143,197.232 C370.312,229.571 397.279,273.132 399.475,330.391 C399.963,343.101 396.992,355.428 392.186,367.384 C390.063,366.418 388.712,364.754 387.314,363.148 C386.662,360.905 388.106,359.344 389.15,357.688 C398.716,342.518 397.406,326.619 385.456,313.205 C384.903,312.584 384.223,312.058 383.76,311.378 C371.718,293.697 353.464,292.479 334.368,299.404 C331.786,300.341 329.362,302.255 326.309,301.219 C323.515,298.648 320.068,297.543 316.452,296.775 C301.669,293.638 286.944,290.238 272.189,286.978 C270.563,286.618 268.934,286.297 267.258,286.398 C265.901,286.48 264.628,286.824 263.618,287.797 C259.968,291.313 262.607,302.181 267.569,303.398 C276.438,305.573 285.368,307.502 294.271,309.537 C298.155,310.426 302.045,311.298 305.946,312.118 C308.039,312.558 310.223,312.915 311.8,314.622 C312.787,316.548 311.628,318.139 310.958,319.785 C304.878,334.726 308.072,348.256 317.132,360.929 C318.391,362.689 320.953,363.95 319.657,366.825 C309.638,380.534 305.952,395.088 314.333,410.931 C318.499,418.806 324.408,425.303 331.774,430.403 C332.836,431.139 333.912,431.854 335.69,433.058 C331.008,435.527 326.861,437.714 322.715,439.901" fill="#FEFEFE"/>
    <path d="M301.609,464.768 C302.094,468.156 300.468,471.122 299.574,474.195 C297.034,482.926 295.412,491.76 295.657,500.885 C292.068,502.388 288.799,503.882 284.402,503.118 C278.781,502.142 275.116,507.946 276.969,514.185 C280.528,526.162 283.371,538.301 285.135,550.654 C288.761,576.044 290.056,601.367 281.647,626.225 C279.503,632.564 276.644,638.551 272.743,643.981 C270.785,646.707 269.998,649.466 270.463,652.843 C271.67,661.616 272.205,670.414 269.717,679.098 C267.643,686.341 265.243,688.235 257.725,688.638 C251.199,688.987 248.552,687.217 245.931,680.242 C243.171,672.899 241.733,665.212 240.465,657.495 C239.142,649.448 237.103,647.704 228.921,647.695 C214.756,647.68 200.592,647.677 186.427,647.697 C178.684,647.708 176.809,649.371 175.413,656.804 C173.849,665.129 172.344,673.466 169.268,681.435 C167.341,686.426 163.937,688.813 158.62,688.685 C151.179,688.507 148.576,686.944 146.451,680.713 C143.411,671.797 144.18,662.633 145.137,653.512 C145.44,650.621 145.66,647.931 143.845,645.398 C132.013,628.878 128.541,609.869 127.827,590.164 C127.014,567.706 130.575,545.728 135.925,523.999 C136.395,522.087 137.044,520.262 138.183,518.528 C140.74,514.638 140.081,510.386 137.974,506.682 C136.097,503.381 132.757,502.098 128.904,503.314 C127.784,503.667 126.923,503.217 126.065,502.82 C95.45,488.663 65.872,472.831 41.692,448.702 C32.545,439.574 24.883,429.376 22.265,416.216 C21.334,411.541 21.195,406.892 22.658,402.394 C28.046,385.82 38.3,373.661 55.061,367.707 C59.442,366.151 63.674,366.184 67.85,369.053 C70.389,370.797 73.504,371.889 76.513,372.73 C88.582,376.101 95.031,390.79 89.325,402.255 C81.473,418.03 66.474,425.392 49.162,421.969 C43.416,420.833 39.371,423.058 38.393,427.893 C37.407,432.765 40.173,436.45 45.864,437.799 C46.995,438.067 48.174,438.488 49.294,438.394 C57.67,437.69 63.996,442.245 70.726,446.198 C97.596,461.984 127.035,469.789 157.775,472.804 C191.327,476.096 224.945,475.792 258.521,472.816 C273.128,471.522 287.392,468.234 301.609,464.768" fill="#FEFEFE"/>
    <path d="M326.82,300.888 C334.142,298.347 341.245,295.472 349.166,294.539 C361.914,293.038 372.493,296.426 380.892,305.953 C384.274,309.789 387.888,313.464 390.661,317.87 C399.152,331.364 399.018,344.724 390.529,358.109 C389.462,359.792 388.386,361.469 387.314,363.148 C381.344,358.99 375.441,354.7 368.288,352.712 C351.096,347.933 335.871,351.278 322.878,363.771 C321.811,364.797 320.73,365.809 319.656,366.826 C319.205,363.717 316.201,362.503 314.7,360.14 C305.485,345.635 303.342,330.694 311.573,315.007 C312.597,313.784 313.927,314.088 315.238,314.259 C324.513,315.464 324.486,315.461 325.075,305.799 C325.182,304.041 325.039,302.096 326.82,300.888" fill="#FFDDB8"/>
    <path d="M347.342,471.881 C342.138,465.894 337.153,459.748 333.328,452.752 C340.517,448.626 348.009,444.995 354.694,440.034 C356.207,438.91 357.783,439.049 359.423,439.053 C363.935,439.065 368.416,438.715 372.733,437.34 C377.689,435.761 379.957,431.932 378.77,427.454 C377.627,423.144 374.093,420.903 369.137,421.854 C365.023,422.643 360.955,423.206 356.76,422.897 C344.426,421.988 330.333,411.075 326.73,399.572 C322.884,387.295 332.01,372.245 346.059,367.923 C355.452,365.033 364.433,366.62 372.165,372.333 C385.432,382.135 395.997,394.051 395.464,411.893 C395.099,424.119 388.507,433.902 380.877,442.913 C371.225,454.313 359.603,463.478 347.342,471.881" fill="#FEFEFE"/>
    <path d="M315.384,83.828 C314.253,81.743 312.569,81.021 310.145,80.94 C287.804,80.196 265.461,79.72 243.106,79.764 C240.505,79.769 238.697,80.273 237.803,82.817 C239.026,66.024 241.144,49.399 248.708,34.064 C253.86,23.618 261.396,16.162 274.024,16.108 C283.813,16.067 291.771,19.558 297.439,27.892 C306.643,41.426 310.358,56.903 313.573,72.569 C314.337,76.289 314.789,80.073 315.384,83.828" fill="#FFDDB8"/>
    <path d="M180.598,79.871 C164.02,79.905 147.404,79.287 130.878,80.233 C121.855,80.749 112.687,79.7 103.763,81.881 C106.051,65.18 109.765,48.864 117.705,33.836 C125.408,19.258 136.344,13.75 150.705,16.81 C158.386,18.447 163.624,23.327 167.654,29.732 C173.881,39.629 176.649,50.728 178.577,62.07 C179.577,67.956 180.714,73.849 180.598,79.871" fill="#FFDDB8"/>
    <path d="M29.912,363.033 C12.954,345.549 13.209,311.456 43.601,299.164 C55.547,294.333 68.011,291.307 80.762,296.839 C83.482,298.019 86.031,299.597 88.658,300.991 C91.687,305.124 90.899,309.233 88.585,313.338 C83.348,315.112 78.013,314.518 72.68,313.986 C69.794,312.295 67.063,312.847 64.205,314.268 C50.397,321.135 44.943,334.025 49.751,348.746 C50.241,350.245 51.687,351.908 48.984,352.665 C41.828,354.667 36.008,359.097 29.912,363.033" fill="#FFDDB8"/>
    <path d="M72.68,313.986 C77.959,311.704 83.449,313.178 88.851,313.077 C91.765,314.864 95.235,315.032 98.318,316.328 C101.753,318.576 105.186,320.825 108.619,323.074 C105.962,325.527 104.482,328.244 106.526,331.835 C116.714,349.734 103.896,359.22 90.821,361.609 C78.692,363.826 65.133,355.904 60.992,344.208 C58.12,336.098 60.894,330.03 69.74,325.066 C75.404,321.888 76.068,319.387 72.68,313.986" fill="#B9DEFE"/>
    <path d="M311.659,510.968 C308.125,505.881 307.464,500.261 308.573,494.314 C311.139,490.504 315.729,489.888 319.252,487.584 C323.233,484.979 327.51,482.855 331.573,480.375 C333.083,479.454 334.535,478.185 336.55,478.88 C339.627,483.466 343.038,487.892 343.593,493.677 C343.245,495.577 341.578,496.162 340.208,497.005 C332.354,501.836 324.177,506.07 315.888,510.093 C314.561,510.737 313.231,511.465 311.659,510.968" fill="#C3B3A0"/>
    <path d="M336.55,478.88 C327.39,484.323 318.328,489.945 308.574,494.312 C308.304,482.07 313.469,471.084 316.601,459.628 C317.899,458.101 319.187,456.548 321.515,457.821 C326.527,464.841 331.538,471.86 336.55,478.88" fill="#FEFEFE"/>
    <path d="M311.659,510.968 C322.568,505.694 333.11,499.742 343.593,493.678 C346.92,502.675 344.071,511.297 336.402,515.438 C327.08,520.471 317.523,518.744 311.659,510.968" fill="#FEFEFE"/>
    <path d="M321.515,457.821 C319.877,458.424 318.239,459.028 316.601,459.63 C316.507,457.782 317.338,456.208 318.033,454.514 C319.793,455.075 320.7,456.399 321.515,457.821" fill="#C3B9AA"/>
    <path d="M75.567,578.188 C79.161,594.732 86.702,609.215 85.625,625.609 C85.144,632.94 81.85,638.845 74.887,641.654 C67.57,644.606 60.495,643.303 54.342,638.269 C48.682,633.638 47.793,627.709 49.318,620.755 C51.839,609.264 59.248,600.644 65.669,591.423 C68.577,587.246 71.759,583.26 75.567,578.188" fill="#FEFEFE"/>
    <path d="M208.143,418.851 C226.364,419.6 244.903,422.44 263.182,427.047 C266.999,428.009 270.549,429.614 269.277,434.394 C268.041,439.04 264.447,438.902 260.436,437.884 C241.525,433.081 222.383,429.403 202.787,430.163 C186.972,430.776 171.446,433.944 156.022,437.435 C155.049,437.656 154.077,437.892 153.093,438.051 C149.652,438.606 147.091,437.478 146.351,433.882 C145.613,430.296 147.512,428.06 150.872,427.327 C158.988,425.555 167.121,423.836 175.296,422.363 C185.944,420.445 196.677,419.138 208.143,418.851" fill="#6E4100"/>
    <path d="M98.318,316.328 C94.504,317.156 91.132,316.696 88.849,313.074 C88.83,309.047 89.618,305.005 88.659,300.99 C89.999,298.23 92.3,296.971 95.24,296.322 C112.065,292.607 128.854,288.731 145.682,285.032 C152.814,283.464 155.312,286.109 154.104,293.589 C154.053,293.9 153.756,294.19 153.757,294.489 C153.774,303.689 153.769,303.654 144.812,305.688 C129.308,309.209 113.816,312.779 98.318,316.328" fill="#6E4100"/>
    <path d="M326.82,300.888 C327.006,304.067 326.007,307.121 326.718,310.466 C327.529,314.28 323.801,317.195 319.761,316.588 C317.015,316.175 314.301,315.541 311.573,315.007 C297.006,311.652 282.444,308.278 267.87,304.952 C261.281,303.449 260.444,302.242 261.48,295.383 C261.573,294.761 261.526,294.095 261.419,293.471 C260.177,286.199 262.867,283.485 270.115,285.078 C286.995,288.789 303.84,292.656 320.709,296.419 C323.442,297.029 325.782,298.03 326.82,300.888" fill="#6E4100"/>
    <path d="M208.448,308.071 C203.004,308.108 199.246,304.608 199.093,299.359 C198.953,294.545 202.191,290.926 206.768,290.782 C211.511,290.632 216.484,295.335 216.599,300.081 C216.71,304.663 213.266,308.039 208.448,308.071" fill="#6E4300"/>
  </g>
</svg>
