<svg width="625" height="260" viewBox="0 0 625 260" fill="none" xmlns="http://www.w3.org/2000/svg">
<mask id="path-1-outside-1_5_5" maskUnits="userSpaceOnUse" x="0.338959" y="-0.668182" width="625" height="261" fill="black">
<rect fill="white" x="0.338959" y="-0.668182" width="625" height="261"/>
<path d="M149.88 121.25C150.58 121.75 150.98 122.4 151.08 123.2C151.18 124 151.03 124.7 150.63 125.3C150.03 126.1 149.23 126.5 148.23 126.5C147.83 126.5 147.43 126.4 147.03 126.2C145.03 125.8 135.13 125.3 117.33 124.7C112.43 145.2 108.48 162.55 105.48 176.75C99.3799 205.05 96.3299 223.2 96.3299 231.2C96.7299 230.5 97.1799 229.75 97.6799 228.95C98.0799 228.25 98.6799 227.8 99.4799 227.6C100.28 227.4 100.98 227.5 101.58 227.9C102.28 228.3 102.73 228.85 102.93 229.55C103.13 230.35 103.03 231.1 102.63 231.8C99.7299 236.7 97.2299 239.15 95.1299 239.15C94.6299 239.15 94.1299 239.05 93.6299 238.85C92.4299 238.35 91.5799 237.25 91.0799 235.55C90.6799 233.95 90.5799 230.8 90.7799 226.1C91.0799 221.5 91.9799 215.1 93.4799 206.9C94.9799 198.7 97.1799 187.8 100.08 174.2C103.08 160.7 106.88 144.15 111.48 124.55C104.68 124.35 94.5299 124.1 81.0299 123.8C79.0299 123.7 76.7799 123.65 74.2799 123.65C59.1799 152.35 47.4799 172.4 39.1799 183.8C36.9799 186.7 34.7799 188.95 32.5799 190.55C30.3799 192.15 28.3299 193.05 26.4299 193.25C24.5299 193.55 22.9299 193.55 21.6299 193.25C20.3299 192.95 19.0799 192.45 17.8799 191.75C12.6799 188.75 8.52987 182.65 5.42987 173.45C2.42987 164.35 1.07987 154.25 1.37987 143.15C1.67987 131.95 3.62987 122.2 7.22987 113.9C11.7299 103.7 18.2799 96.85 26.8799 93.35C35.5799 89.85 45.7799 89.95 57.4799 93.65C58.2799 93.85 58.8299 94.3 59.1299 95C59.5299 95.7 59.5799 96.45 59.2799 97.25C59.0799 97.95 58.6299 98.5 57.9299 98.9C57.2299 99.3 56.4799 99.35 55.6799 99.05C51.7799 97.85 47.9799 97.1 44.2799 96.8C40.5799 96.5 36.6799 96.8 32.5799 97.7C28.5799 98.5 24.8299 100.5 21.3299 103.7C17.8299 106.8 14.8799 111 12.4799 116.3C10.6799 120.4 9.32987 124.95 8.42987 129.95C7.52987 134.95 7.07987 139.85 7.07987 144.65C7.07987 149.45 7.42987 154.15 8.12987 158.75C8.82987 163.45 9.77987 167.65 10.9799 171.35C12.2799 175.15 13.7299 178.4 15.3299 181.1C17.0299 183.8 18.8299 185.7 20.7299 186.8C24.9299 189.2 29.5299 187.05 34.5299 180.35C42.5299 169.55 53.6299 150.6 67.8299 123.5C41.8299 122.8 27.6299 122.2 25.2299 121.7C24.4299 121.5 23.7799 121.1 23.2799 120.5C22.8799 119.8 22.7299 119.05 22.8299 118.25C23.0299 117.45 23.4799 116.85 24.1799 116.45C24.8799 116.05 25.5799 115.9 26.2799 116C28.4799 116.5 43.3299 117.1 70.8299 117.8C75.2299 109.2 81.8799 96.2 90.7799 78.8C96.5799 67.2 101.33 57.8 105.03 50.6C108.73 43.4 112.33 36.55 115.83 30.05C119.43 23.55 122.28 18.65 124.38 15.35C126.48 11.95 128.48 9.05 130.38 6.65C132.28 4.15 133.83 2.60001 135.03 2.00001C136.33 1.3 137.58 1.15 138.78 1.55C140.38 2.15 141.38 3.5 141.78 5.6C142.28 7.7 142.33 10.6 141.93 14.3C141.33 20.8 139.58 30.5 136.68 43.4C135.48 49.1 132.43 62 127.53 82.1C123.73 97.9 120.78 110.2 118.68 119C138.18 119.6 148.58 120.35 149.88 121.25ZM81.1799 117.95C94.2799 118.35 104.83 118.65 112.83 118.85C115.53 107.25 118.53 94.55 121.83 80.75C126.73 60.75 129.83 47.9 131.13 42.2C135.03 24.5 136.78 13.15 136.38 8.15C134.78 9.75001 132.53 12.9 129.63 17.6C126.83 22.2 123.23 28.6 118.83 36.8C114.53 45 110.93 51.95 108.03 57.65C105.13 63.25 101.08 71.15 95.8799 81.35C87.6799 97.55 81.4799 109.75 77.2799 117.95C77.6799 117.95 78.2799 117.95 79.0799 117.95C79.9799 117.95 80.6799 117.95 81.1799 117.95Z"/>
<path d="M222.278 117.95C223.078 117.65 223.828 117.7 224.528 118.1C225.228 118.4 225.728 118.95 226.028 119.75C226.328 120.45 226.278 121.15 225.878 121.85C223.178 127.65 220.128 133.6 216.728 139.7C213.328 145.8 209.578 151.95 205.478 158.15C201.478 164.45 197.478 169.55 193.478 173.45C189.478 177.45 186.078 179.45 183.278 179.45C182.578 179.45 181.928 179.3 181.328 179C177.228 177.4 175.928 171.2 177.428 160.4C178.828 150.3 182.528 136 188.528 117.5C188.428 117.5 188.328 117.55 188.228 117.65C188.228 117.65 188.178 117.65 188.078 117.65C185.878 119.15 184.028 120.3 182.528 121.1C181.128 121.9 179.178 122.8 176.678 123.8C174.278 124.8 171.978 125.25 169.778 125.15C167.578 125.05 165.528 124.35 163.628 123.05C159.828 120.35 157.878 116.6 157.778 111.8C157.678 107 159.478 101.75 163.178 96.05C165.478 92.45 168.228 89.3 171.428 86.6C174.728 83.9 177.528 83.3 179.828 84.8C181.228 85.6 182.028 86.9 182.228 88.7C182.528 90.5 181.678 94 179.678 99.2C177.678 104.3 174.328 111 169.628 119.3C172.728 119.7 177.828 117.55 184.928 112.85C186.228 111.95 187.178 111.35 187.778 111.05C188.478 110.65 189.228 110.25 190.028 109.85C190.928 109.45 191.678 109.3 192.278 109.4C192.878 109.5 193.478 109.75 194.078 110.15C195.578 111.35 195.828 113.45 194.828 116.45C184.828 147.45 180.878 166.25 182.978 172.85C183.178 173.25 183.328 173.55 183.428 173.75C184.228 173.85 185.428 173.2 187.028 171.8C188.728 170.4 190.778 168.2 193.178 165.2C195.678 162.2 198.328 158.6 201.128 154.4C204.028 150.2 207.178 145.05 210.578 138.95C214.078 132.85 217.428 126.35 220.628 119.45C221.028 118.65 221.578 118.15 222.278 117.95ZM164.078 107.75C163.178 111.25 163.378 114.05 164.678 116.15C171.978 103.45 175.878 94.85 176.378 90.35C175.178 91.05 173.778 92.2 172.178 93.8C170.678 95.4 169.078 97.5 167.378 100.1C165.778 102.6 164.678 105.15 164.078 107.75Z"/>
<path d="M344.312 63.5C344.812 64.1 345.012 64.8 344.912 65.6C344.812 66.4 344.412 67.05 343.712 67.55C342.512 68.35 341.362 68.3 340.262 67.4C335.462 65.7 301.762 65.55 239.162 66.95C232.662 94.25 226.061 123.85 219.361 155.75C211.361 194.25 206.512 220.7 204.812 235.1C205.012 235.1 205.212 235.15 205.412 235.25C206.212 235.45 206.762 235.9 207.062 236.6C207.362 237.4 207.362 238.15 207.062 238.85C206.562 240.45 206.161 241.6 205.861 242.3C205.461 243.1 204.912 243.85 204.212 244.55C203.512 245.35 202.762 245.75 201.962 245.75C201.662 245.75 201.312 245.7 200.912 245.6C199.612 245.2 198.862 244.15 198.662 242.45C198.362 240.75 198.462 238.45 198.962 235.55C199.362 231.35 200.262 225.3 201.662 217.4C204.162 202.4 207.912 182.9 212.912 158.9C219.612 126.5 226.362 95.9 233.162 67.1C226.362 67.2 217.912 67.4 207.812 67.7C191.812 68.1 182.411 68.3 179.611 68.3C178.811 68.3 178.162 68.05 177.662 67.55C177.062 66.95 176.762 66.25 176.762 65.45C176.762 64.95 176.912 64.5 177.212 64.1C177.412 63.6 177.761 63.25 178.261 63.05C178.661 62.75 179.111 62.6 179.611 62.6C182.411 62.6 191.762 62.35 207.662 61.85C217.562 61.65 226.562 61.45 234.662 61.25C237.862 48.05 240.712 36.85 243.212 27.65C243.412 26.85 243.862 26.25 244.562 25.85C245.262 25.45 245.962 25.35 246.662 25.55C247.462 25.75 248.062 26.2 248.462 26.9C248.862 27.6 248.962 28.35 248.762 29.15C246.362 38.05 243.612 48.7 240.512 61.1C270.512 60.3 293.162 60 308.462 60.2C323.762 60.4 333.362 60.75 337.262 61.25C341.262 61.65 343.612 62.4 344.312 63.5Z"/>
<path d="M428.079 116.6C428.879 116.7 429.53 117.1 430.03 117.8C430.53 118.4 430.679 119.1 430.479 119.9C430.379 120.6 429.98 121.2 429.28 121.7C413.78 132.8 399.63 143.3 386.829 153.2C388.129 157.3 388.28 161.8 387.28 166.7C385.68 174.8 382.73 182.7 378.43 190.4C374.23 198.1 369.379 204.85 363.879 210.65C358.479 216.45 352.729 221.6 346.629 226.1C340.629 230.6 334.879 234.05 329.379 236.45C323.979 238.85 319.229 240.2 315.129 240.5C314.529 240.6 313.979 240.65 313.479 240.65C308.679 240.65 305.629 238.85 304.329 235.25C302.029 228.95 307.379 218.6 320.379 204.2C333.379 189.8 353.179 172.2 379.779 151.4C376.779 145.9 370.879 140.85 362.079 136.25C353.279 131.55 339.379 125.35 320.379 117.65C315.179 115.55 311.179 113.9 308.379 112.7C301.179 109.7 296.179 105.65 293.379 100.55C290.579 95.45 290.229 89.6 292.329 83C294.929 74.6 301.229 65.5 311.229 55.7C321.229 45.8 332.13 37.15 343.93 29.75C355.83 22.35 367.779 16.45 379.779 12.05C391.879 7.65 401.229 6.2 407.829 7.7C409.329 8 410.68 8.5 411.88 9.20001C413.18 9.8 414.48 10.75 415.78 12.05C417.08 13.35 417.979 15.15 418.479 17.45C419.079 19.65 419.18 22.3 418.78 25.4C418.68 25.9 418.48 26.35 418.18 26.75C417.88 27.15 417.479 27.45 416.979 27.65C416.479 27.85 415.979 27.9 415.479 27.8C414.679 27.7 414.03 27.35 413.53 26.75C413.03 26.05 412.83 25.3 412.93 24.5C413.53 20.8 413.18 18.15 411.88 16.55C410.68 14.95 408.929 13.9 406.629 13.4C402.929 12.5 397.929 12.8 391.629 14.3C385.329 15.8 378.279 18.35 370.479 21.95C362.779 25.45 354.93 29.8 346.93 35C334.03 43.1 323.179 51.6 314.379 60.5C305.579 69.4 300.079 77.45 297.879 84.65C294.579 94.95 298.829 102.55 310.629 107.45C313.329 108.55 317.329 110.15 322.629 112.25C329.229 114.95 334.129 117 337.329 118.4C340.529 119.7 344.73 121.5 349.93 123.8C355.13 126 359.13 127.9 361.93 129.5C364.73 131.1 367.779 132.95 371.079 135.05C374.379 137.15 377.08 139.25 379.18 141.35C381.28 143.35 383.03 145.5 384.43 147.8C397.03 138 410.879 127.75 425.979 117.05C426.679 116.55 427.379 116.4 428.079 116.6ZM381.729 165.5C382.329 162.5 382.379 159.7 381.879 157.1C360.579 173.8 343.68 188.5 331.18 201.2C323.88 208.7 318.279 215.35 314.379 221.15C310.479 227.05 308.929 231.1 309.729 233.3C310.129 234.5 311.78 235 314.68 234.8C318.08 234.5 322.229 233.25 327.129 231.05C332.129 228.85 337.429 225.65 343.029 221.45C348.729 217.25 354.129 212.45 359.229 207.05C364.429 201.75 369.08 195.4 373.18 188C377.28 180.7 380.129 173.2 381.729 165.5Z"/>
<path d="M456.501 96.35C459.501 97.25 461.501 99.65 462.501 103.55C463.501 107.35 463.351 111.8 462.051 116.9C459.651 125.7 453.751 133.85 444.351 141.35C440.451 144.55 436.151 147.35 431.451 149.75C427.851 164.45 423.851 182.7 419.451 204.5C414.951 226.4 411.651 243.7 409.551 256.4C409.251 258 408.301 258.8 406.701 258.8C406.501 258.8 406.351 258.8 406.251 258.8C405.751 258.7 405.301 258.5 404.901 258.2C404.501 257.9 404.201 257.5 404.001 257C403.801 256.5 403.751 256 403.851 255.5C406.451 238 412.201 204.2 421.101 154.1C419.901 154.5 418.701 154.85 417.501 155.15C416.701 155.45 415.951 155.4 415.251 155C414.551 154.6 414.101 154 413.901 153.2C413.701 152.4 413.801 151.65 414.201 150.95C414.601 150.25 415.201 149.8 416.001 149.6C418.001 149.1 420.051 148.4 422.151 147.5C422.851 144 423.801 138.8 425.001 131.9C430.201 102.7 432.851 87.45 432.951 86.15C432.951 85.35 433.201 84.7 433.701 84.2C434.301 83.6 434.951 83.3 435.651 83.3C436.451 83.2 437.151 83.45 437.751 84.05C438.351 84.55 438.701 85.2 438.801 86C438.801 86.8 436.451 100.4 431.751 126.8C433.251 122.6 434.751 118.8 436.251 115.4C437.851 112 439.301 109.2 440.601 107C442.001 104.8 443.401 102.95 444.801 101.45C446.201 99.95 447.451 98.85 448.551 98.15C449.651 97.35 450.701 96.8 451.701 96.5C452.801 96.1 453.701 95.95 454.401 96.05C455.201 96.05 455.901 96.15 456.501 96.35ZM456.501 115.4C457.401 111.5 457.601 108.35 457.101 105.95C456.701 103.55 455.951 102.2 454.851 101.9C454.751 101.8 454.601 101.75 454.401 101.75C453.801 101.75 453.101 102 452.301 102.5C451.601 102.9 450.651 103.75 449.451 105.05C448.251 106.25 447.001 107.85 445.701 109.85C444.501 111.75 443.101 114.4 441.501 117.8C440.001 121.2 438.501 125.1 437.001 129.5C436.001 132.5 434.801 136.7 433.401 142.1C439.101 138.6 444.001 134.55 448.101 129.95C452.301 125.35 455.101 120.5 456.501 115.4Z"/>
<path d="M530.265 118.55C531.065 118.25 531.815 118.3 532.515 118.7C533.215 119 533.665 119.55 533.865 120.35C534.165 121.05 534.165 121.75 533.865 122.45C523.165 144.55 513.615 155.6 505.215 155.6C504.715 155.6 504.165 155.55 503.565 155.45C496.865 154.15 492.715 145.15 491.115 128.45C486.215 135.05 481.865 140.45 478.065 144.65C474.665 148.25 471.765 149.5 469.365 148.4C466.965 147.5 465.815 144.9 465.915 140.6C465.915 137 466.715 132.7 468.315 127.7C469.915 122.7 472.265 117.85 475.365 113.15C478.465 108.45 481.815 105.5 485.415 104.3C490.715 102.4 495.615 104.15 500.115 109.55C500.615 110.15 500.815 110.85 500.715 111.65C500.715 112.45 500.415 113.1 499.815 113.6C499.215 114.1 498.515 114.35 497.715 114.35C496.915 114.25 496.265 113.9 495.765 113.3C492.265 109.1 488.715 108.3 485.115 110.9C481.015 113.8 477.565 119.05 474.765 126.65C472.065 134.15 471.015 139.5 471.615 142.7C472.215 142.2 472.915 141.55 473.715 140.75C477.715 136.45 482.615 130.3 488.415 122.3C489.715 120.5 490.615 119.25 491.115 118.55C491.915 117.55 492.965 117.25 494.265 117.65C495.565 117.95 496.265 118.8 496.365 120.2C496.565 125.1 496.965 129.45 497.565 133.25C498.165 137.05 498.765 139.95 499.365 141.95C499.965 143.85 500.665 145.45 501.465 146.75C502.265 148.05 502.865 148.9 503.265 149.3C503.765 149.6 504.265 149.75 504.765 149.75C506.165 150.05 507.915 149.4 510.015 147.8C512.215 146.1 514.965 142.9 518.265 138.2C521.665 133.4 525.115 127.35 528.615 120.05C529.015 119.25 529.565 118.75 530.265 118.55Z"/>
<path d="M574.633 117.5C575.433 117.3 576.133 117.45 576.733 117.95C577.433 118.35 577.883 118.95 578.083 119.75C578.283 120.55 578.133 121.25 577.633 121.85C574.333 126.95 571.433 131.25 568.933 134.75C566.533 138.25 563.783 142 560.683 146C557.583 149.9 554.733 153 552.133 155.3C549.633 157.7 546.983 159.65 544.183 161.15C541.383 162.75 538.733 163.55 536.233 163.55C535.333 163.55 534.433 163.45 533.533 163.25C529.933 162.45 527.183 160.35 525.283 156.95C523.283 152.45 522.433 147.55 522.733 142.25C522.933 136.85 523.983 131.55 525.883 126.35C527.883 120.85 530.383 116.6 533.383 113.6C536.483 110.6 539.383 109.55 542.083 110.45C542.683 110.65 543.233 110.95 543.733 111.35C544.233 111.65 544.833 112.35 545.533 113.45C546.233 114.45 546.583 115.8 546.583 117.5C546.583 119.2 546.283 121.4 545.683 124.1C545.483 124.9 545.033 125.5 544.333 125.9C543.733 126.3 543.033 126.4 542.233 126.2C541.433 126 540.833 125.55 540.433 124.85C540.033 124.15 539.933 123.45 540.133 122.75C541.133 118.95 541.183 116.65 540.283 115.85C539.883 115.85 539.233 116.15 538.333 116.75C537.533 117.35 536.433 118.7 535.033 120.8C533.633 122.8 532.383 125.35 531.283 128.45C529.483 133.15 528.483 137.95 528.283 142.85C528.183 147.65 528.883 151.4 530.383 154.1C531.383 156 532.833 157.15 534.733 157.55C536.433 157.95 538.333 157.7 540.433 156.8C542.633 155.9 544.933 154.3 547.333 152C549.833 149.6 552.083 147.3 554.083 145.1C556.083 142.8 558.383 139.8 560.983 136.1C563.683 132.3 565.733 129.4 567.133 127.4C568.533 125.3 570.433 122.4 572.833 118.7C573.233 118.1 573.833 117.7 574.633 117.5Z"/>
<path d="M620.218 118.1C621.018 117.9 621.718 118.05 622.318 118.55C623.018 118.95 623.418 119.55 623.518 120.35C623.618 121.15 623.468 121.85 623.068 122.45C611.768 138.25 601.468 149.45 592.168 156.05C588.468 158.65 584.818 159.95 581.218 159.95C578.418 159.95 575.968 159.2 573.868 157.7C572.668 156.8 571.618 155.6 570.718 154.1C569.718 152.6 568.868 150.5 568.168 147.8C567.468 145.1 567.368 141.55 567.868 137.15C568.268 132.75 569.368 127.75 571.168 122.15V122C573.968 112.9 577.368 105.7 581.368 100.4C585.368 95.1 588.968 92.4 592.168 92.3C594.468 92.2 595.968 93.2 596.668 95.3C597.768 98.2 596.468 102.3 592.768 107.6C589.068 112.9 583.618 118.6 576.418 124.7C575.218 128.6 574.368 132.2 573.868 135.5C573.368 138.8 573.168 141.45 573.268 143.45C573.468 145.35 573.818 147.05 574.318 148.55C574.918 149.95 575.418 150.95 575.818 151.55C576.318 152.15 576.818 152.65 577.318 153.05C580.318 155.25 584.168 154.65 588.868 151.25C597.668 145.05 607.468 134.35 618.268 119.15C618.768 118.55 619.418 118.2 620.218 118.1ZM591.118 98.6C587.618 100.8 584.168 105.55 580.768 112.85C586.568 107.05 590.018 102.3 591.118 98.6Z"/>
</mask>
<path d="M149.88 121.25C150.58 121.75 150.98 122.4 151.08 123.2C151.18 124 151.03 124.7 150.63 125.3C150.03 126.1 149.23 126.5 148.23 126.5C147.83 126.5 147.43 126.4 147.03 126.2C145.03 125.8 135.13 125.3 117.33 124.7C112.43 145.2 108.48 162.55 105.48 176.75C99.3799 205.05 96.3299 223.2 96.3299 231.2C96.7299 230.5 97.1799 229.75 97.6799 228.95C98.0799 228.25 98.6799 227.8 99.4799 227.6C100.28 227.4 100.98 227.5 101.58 227.9C102.28 228.3 102.73 228.85 102.93 229.55C103.13 230.35 103.03 231.1 102.63 231.8C99.7299 236.7 97.2299 239.15 95.1299 239.15C94.6299 239.15 94.1299 239.05 93.6299 238.85C92.4299 238.35 91.5799 237.25 91.0799 235.55C90.6799 233.95 90.5799 230.8 90.7799 226.1C91.0799 221.5 91.9799 215.1 93.4799 206.9C94.9799 198.7 97.1799 187.8 100.08 174.2C103.08 160.7 106.88 144.15 111.48 124.55C104.68 124.35 94.5299 124.1 81.0299 123.8C79.0299 123.7 76.7799 123.65 74.2799 123.65C59.1799 152.35 47.4799 172.4 39.1799 183.8C36.9799 186.7 34.7799 188.95 32.5799 190.55C30.3799 192.15 28.3299 193.05 26.4299 193.25C24.5299 193.55 22.9299 193.55 21.6299 193.25C20.3299 192.95 19.0799 192.45 17.8799 191.75C12.6799 188.75 8.52987 182.65 5.42987 173.45C2.42987 164.35 1.07987 154.25 1.37987 143.15C1.67987 131.95 3.62987 122.2 7.22987 113.9C11.7299 103.7 18.2799 96.85 26.8799 93.35C35.5799 89.85 45.7799 89.95 57.4799 93.65C58.2799 93.85 58.8299 94.3 59.1299 95C59.5299 95.7 59.5799 96.45 59.2799 97.25C59.0799 97.95 58.6299 98.5 57.9299 98.9C57.2299 99.3 56.4799 99.35 55.6799 99.05C51.7799 97.85 47.9799 97.1 44.2799 96.8C40.5799 96.5 36.6799 96.8 32.5799 97.7C28.5799 98.5 24.8299 100.5 21.3299 103.7C17.8299 106.8 14.8799 111 12.4799 116.3C10.6799 120.4 9.32987 124.95 8.42987 129.95C7.52987 134.95 7.07987 139.85 7.07987 144.65C7.07987 149.45 7.42987 154.15 8.12987 158.75C8.82987 163.45 9.77987 167.65 10.9799 171.35C12.2799 175.15 13.7299 178.4 15.3299 181.1C17.0299 183.8 18.8299 185.7 20.7299 186.8C24.9299 189.2 29.5299 187.05 34.5299 180.35C42.5299 169.55 53.6299 150.6 67.8299 123.5C41.8299 122.8 27.6299 122.2 25.2299 121.7C24.4299 121.5 23.7799 121.1 23.2799 120.5C22.8799 119.8 22.7299 119.05 22.8299 118.25C23.0299 117.45 23.4799 116.85 24.1799 116.45C24.8799 116.05 25.5799 115.9 26.2799 116C28.4799 116.5 43.3299 117.1 70.8299 117.8C75.2299 109.2 81.8799 96.2 90.7799 78.8C96.5799 67.2 101.33 57.8 105.03 50.6C108.73 43.4 112.33 36.55 115.83 30.05C119.43 23.55 122.28 18.65 124.38 15.35C126.48 11.95 128.48 9.05 130.38 6.65C132.28 4.15 133.83 2.60001 135.03 2.00001C136.33 1.3 137.58 1.15 138.78 1.55C140.38 2.15 141.38 3.5 141.78 5.6C142.28 7.7 142.33 10.6 141.93 14.3C141.33 20.8 139.58 30.5 136.68 43.4C135.48 49.1 132.43 62 127.53 82.1C123.73 97.9 120.78 110.2 118.68 119C138.18 119.6 148.58 120.35 149.88 121.25ZM81.1799 117.95C94.2799 118.35 104.83 118.65 112.83 118.85C115.53 107.25 118.53 94.55 121.83 80.75C126.73 60.75 129.83 47.9 131.13 42.2C135.03 24.5 136.78 13.15 136.38 8.15C134.78 9.75001 132.53 12.9 129.63 17.6C126.83 22.2 123.23 28.6 118.83 36.8C114.53 45 110.93 51.95 108.03 57.65C105.13 63.25 101.08 71.15 95.8799 81.35C87.6799 97.55 81.4799 109.75 77.2799 117.95C77.6799 117.95 78.2799 117.95 79.0799 117.95C79.9799 117.95 80.6799 117.95 81.1799 117.95Z" fill="#DB3EB1"/>
<path d="M222.278 117.95C223.078 117.65 223.828 117.7 224.528 118.1C225.228 118.4 225.728 118.95 226.028 119.75C226.328 120.45 226.278 121.15 225.878 121.85C223.178 127.65 220.128 133.6 216.728 139.7C213.328 145.8 209.578 151.95 205.478 158.15C201.478 164.45 197.478 169.55 193.478 173.45C189.478 177.45 186.078 179.45 183.278 179.45C182.578 179.45 181.928 179.3 181.328 179C177.228 177.4 175.928 171.2 177.428 160.4C178.828 150.3 182.528 136 188.528 117.5C188.428 117.5 188.328 117.55 188.228 117.65C188.228 117.65 188.178 117.65 188.078 117.65C185.878 119.15 184.028 120.3 182.528 121.1C181.128 121.9 179.178 122.8 176.678 123.8C174.278 124.8 171.978 125.25 169.778 125.15C167.578 125.05 165.528 124.35 163.628 123.05C159.828 120.35 157.878 116.6 157.778 111.8C157.678 107 159.478 101.75 163.178 96.05C165.478 92.45 168.228 89.3 171.428 86.6C174.728 83.9 177.528 83.3 179.828 84.8C181.228 85.6 182.028 86.9 182.228 88.7C182.528 90.5 181.678 94 179.678 99.2C177.678 104.3 174.328 111 169.628 119.3C172.728 119.7 177.828 117.55 184.928 112.85C186.228 111.95 187.178 111.35 187.778 111.05C188.478 110.65 189.228 110.25 190.028 109.85C190.928 109.45 191.678 109.3 192.278 109.4C192.878 109.5 193.478 109.75 194.078 110.15C195.578 111.35 195.828 113.45 194.828 116.45C184.828 147.45 180.878 166.25 182.978 172.85C183.178 173.25 183.328 173.55 183.428 173.75C184.228 173.85 185.428 173.2 187.028 171.8C188.728 170.4 190.778 168.2 193.178 165.2C195.678 162.2 198.328 158.6 201.128 154.4C204.028 150.2 207.178 145.05 210.578 138.95C214.078 132.85 217.428 126.35 220.628 119.45C221.028 118.65 221.578 118.15 222.278 117.95ZM164.078 107.75C163.178 111.25 163.378 114.05 164.678 116.15C171.978 103.45 175.878 94.85 176.378 90.35C175.178 91.05 173.778 92.2 172.178 93.8C170.678 95.4 169.078 97.5 167.378 100.1C165.778 102.6 164.678 105.15 164.078 107.75Z" fill="#DB3EB1"/>
<path d="M344.312 63.5C344.812 64.1 345.012 64.8 344.912 65.6C344.812 66.4 344.412 67.05 343.712 67.55C342.512 68.35 341.362 68.3 340.262 67.4C335.462 65.7 301.762 65.55 239.162 66.95C232.662 94.25 226.061 123.85 219.361 155.75C211.361 194.25 206.512 220.7 204.812 235.1C205.012 235.1 205.212 235.15 205.412 235.25C206.212 235.45 206.762 235.9 207.062 236.6C207.362 237.4 207.362 238.15 207.062 238.85C206.562 240.45 206.161 241.6 205.861 242.3C205.461 243.1 204.912 243.85 204.212 244.55C203.512 245.35 202.762 245.75 201.962 245.75C201.662 245.75 201.312 245.7 200.912 245.6C199.612 245.2 198.862 244.15 198.662 242.45C198.362 240.75 198.462 238.45 198.962 235.55C199.362 231.35 200.262 225.3 201.662 217.4C204.162 202.4 207.912 182.9 212.912 158.9C219.612 126.5 226.362 95.9 233.162 67.1C226.362 67.2 217.912 67.4 207.812 67.7C191.812 68.1 182.411 68.3 179.611 68.3C178.811 68.3 178.162 68.05 177.662 67.55C177.062 66.95 176.762 66.25 176.762 65.45C176.762 64.95 176.912 64.5 177.212 64.1C177.412 63.6 177.761 63.25 178.261 63.05C178.661 62.75 179.111 62.6 179.611 62.6C182.411 62.6 191.762 62.35 207.662 61.85C217.562 61.65 226.562 61.45 234.662 61.25C237.862 48.05 240.712 36.85 243.212 27.65C243.412 26.85 243.862 26.25 244.562 25.85C245.262 25.45 245.962 25.35 246.662 25.55C247.462 25.75 248.062 26.2 248.462 26.9C248.862 27.6 248.962 28.35 248.762 29.15C246.362 38.05 243.612 48.7 240.512 61.1C270.512 60.3 293.162 60 308.462 60.2C323.762 60.4 333.362 60.75 337.262 61.25C341.262 61.65 343.612 62.4 344.312 63.5Z" fill="#DB3EB1"/>
<path d="M428.079 116.6C428.879 116.7 429.53 117.1 430.03 117.8C430.53 118.4 430.679 119.1 430.479 119.9C430.379 120.6 429.98 121.2 429.28 121.7C413.78 132.8 399.63 143.3 386.829 153.2C388.129 157.3 388.28 161.8 387.28 166.7C385.68 174.8 382.73 182.7 378.43 190.4C374.23 198.1 369.379 204.85 363.879 210.65C358.479 216.45 352.729 221.6 346.629 226.1C340.629 230.6 334.879 234.05 329.379 236.45C323.979 238.85 319.229 240.2 315.129 240.5C314.529 240.6 313.979 240.65 313.479 240.65C308.679 240.65 305.629 238.85 304.329 235.25C302.029 228.95 307.379 218.6 320.379 204.2C333.379 189.8 353.179 172.2 379.779 151.4C376.779 145.9 370.879 140.85 362.079 136.25C353.279 131.55 339.379 125.35 320.379 117.65C315.179 115.55 311.179 113.9 308.379 112.7C301.179 109.7 296.179 105.65 293.379 100.55C290.579 95.45 290.229 89.6 292.329 83C294.929 74.6 301.229 65.5 311.229 55.7C321.229 45.8 332.13 37.15 343.93 29.75C355.83 22.35 367.779 16.45 379.779 12.05C391.879 7.65 401.229 6.2 407.829 7.7C409.329 8 410.68 8.5 411.88 9.20001C413.18 9.8 414.48 10.75 415.78 12.05C417.08 13.35 417.979 15.15 418.479 17.45C419.079 19.65 419.18 22.3 418.78 25.4C418.68 25.9 418.48 26.35 418.18 26.75C417.88 27.15 417.479 27.45 416.979 27.65C416.479 27.85 415.979 27.9 415.479 27.8C414.679 27.7 414.03 27.35 413.53 26.75C413.03 26.05 412.83 25.3 412.93 24.5C413.53 20.8 413.18 18.15 411.88 16.55C410.68 14.95 408.929 13.9 406.629 13.4C402.929 12.5 397.929 12.8 391.629 14.3C385.329 15.8 378.279 18.35 370.479 21.95C362.779 25.45 354.93 29.8 346.93 35C334.03 43.1 323.179 51.6 314.379 60.5C305.579 69.4 300.079 77.45 297.879 84.65C294.579 94.95 298.829 102.55 310.629 107.45C313.329 108.55 317.329 110.15 322.629 112.25C329.229 114.95 334.129 117 337.329 118.4C340.529 119.7 344.73 121.5 349.93 123.8C355.13 126 359.13 127.9 361.93 129.5C364.73 131.1 367.779 132.95 371.079 135.05C374.379 137.15 377.08 139.25 379.18 141.35C381.28 143.35 383.03 145.5 384.43 147.8C397.03 138 410.879 127.75 425.979 117.05C426.679 116.55 427.379 116.4 428.079 116.6ZM381.729 165.5C382.329 162.5 382.379 159.7 381.879 157.1C360.579 173.8 343.68 188.5 331.18 201.2C323.88 208.7 318.279 215.35 314.379 221.15C310.479 227.05 308.929 231.1 309.729 233.3C310.129 234.5 311.78 235 314.68 234.8C318.08 234.5 322.229 233.25 327.129 231.05C332.129 228.85 337.429 225.65 343.029 221.45C348.729 217.25 354.129 212.45 359.229 207.05C364.429 201.75 369.08 195.4 373.18 188C377.28 180.7 380.129 173.2 381.729 165.5Z" fill="#DB3EB1"/>
<path d="M456.501 96.35C459.501 97.25 461.501 99.65 462.501 103.55C463.501 107.35 463.351 111.8 462.051 116.9C459.651 125.7 453.751 133.85 444.351 141.35C440.451 144.55 436.151 147.35 431.451 149.75C427.851 164.45 423.851 182.7 419.451 204.5C414.951 226.4 411.651 243.7 409.551 256.4C409.251 258 408.301 258.8 406.701 258.8C406.501 258.8 406.351 258.8 406.251 258.8C405.751 258.7 405.301 258.5 404.901 258.2C404.501 257.9 404.201 257.5 404.001 257C403.801 256.5 403.751 256 403.851 255.5C406.451 238 412.201 204.2 421.101 154.1C419.901 154.5 418.701 154.85 417.501 155.15C416.701 155.45 415.951 155.4 415.251 155C414.551 154.6 414.101 154 413.901 153.2C413.701 152.4 413.801 151.65 414.201 150.95C414.601 150.25 415.201 149.8 416.001 149.6C418.001 149.1 420.051 148.4 422.151 147.5C422.851 144 423.801 138.8 425.001 131.9C430.201 102.7 432.851 87.45 432.951 86.15C432.951 85.35 433.201 84.7 433.701 84.2C434.301 83.6 434.951 83.3 435.651 83.3C436.451 83.2 437.151 83.45 437.751 84.05C438.351 84.55 438.701 85.2 438.801 86C438.801 86.8 436.451 100.4 431.751 126.8C433.251 122.6 434.751 118.8 436.251 115.4C437.851 112 439.301 109.2 440.601 107C442.001 104.8 443.401 102.95 444.801 101.45C446.201 99.95 447.451 98.85 448.551 98.15C449.651 97.35 450.701 96.8 451.701 96.5C452.801 96.1 453.701 95.95 454.401 96.05C455.201 96.05 455.901 96.15 456.501 96.35ZM456.501 115.4C457.401 111.5 457.601 108.35 457.101 105.95C456.701 103.55 455.951 102.2 454.851 101.9C454.751 101.8 454.601 101.75 454.401 101.75C453.801 101.75 453.101 102 452.301 102.5C451.601 102.9 450.651 103.75 449.451 105.05C448.251 106.25 447.001 107.85 445.701 109.85C444.501 111.75 443.101 114.4 441.501 117.8C440.001 121.2 438.501 125.1 437.001 129.5C436.001 132.5 434.801 136.7 433.401 142.1C439.101 138.6 444.001 134.55 448.101 129.95C452.301 125.35 455.101 120.5 456.501 115.4Z" fill="#DB3EB1"/>
<path d="M530.265 118.55C531.065 118.25 531.815 118.3 532.515 118.7C533.215 119 533.665 119.55 533.865 120.35C534.165 121.05 534.165 121.75 533.865 122.45C523.165 144.55 513.615 155.6 505.215 155.6C504.715 155.6 504.165 155.55 503.565 155.45C496.865 154.15 492.715 145.15 491.115 128.45C486.215 135.05 481.865 140.45 478.065 144.65C474.665 148.25 471.765 149.5 469.365 148.4C466.965 147.5 465.815 144.9 465.915 140.6C465.915 137 466.715 132.7 468.315 127.7C469.915 122.7 472.265 117.85 475.365 113.15C478.465 108.45 481.815 105.5 485.415 104.3C490.715 102.4 495.615 104.15 500.115 109.55C500.615 110.15 500.815 110.85 500.715 111.65C500.715 112.45 500.415 113.1 499.815 113.6C499.215 114.1 498.515 114.35 497.715 114.35C496.915 114.25 496.265 113.9 495.765 113.3C492.265 109.1 488.715 108.3 485.115 110.9C481.015 113.8 477.565 119.05 474.765 126.65C472.065 134.15 471.015 139.5 471.615 142.7C472.215 142.2 472.915 141.55 473.715 140.75C477.715 136.45 482.615 130.3 488.415 122.3C489.715 120.5 490.615 119.25 491.115 118.55C491.915 117.55 492.965 117.25 494.265 117.65C495.565 117.95 496.265 118.8 496.365 120.2C496.565 125.1 496.965 129.45 497.565 133.25C498.165 137.05 498.765 139.95 499.365 141.95C499.965 143.85 500.665 145.45 501.465 146.75C502.265 148.05 502.865 148.9 503.265 149.3C503.765 149.6 504.265 149.75 504.765 149.75C506.165 150.05 507.915 149.4 510.015 147.8C512.215 146.1 514.965 142.9 518.265 138.2C521.665 133.4 525.115 127.35 528.615 120.05C529.015 119.25 529.565 118.75 530.265 118.55Z" fill="#DB3EB1"/>
<path d="M574.633 117.5C575.433 117.3 576.133 117.45 576.733 117.95C577.433 118.35 577.883 118.95 578.083 119.75C578.283 120.55 578.133 121.25 577.633 121.85C574.333 126.95 571.433 131.25 568.933 134.75C566.533 138.25 563.783 142 560.683 146C557.583 149.9 554.733 153 552.133 155.3C549.633 157.7 546.983 159.65 544.183 161.15C541.383 162.75 538.733 163.55 536.233 163.55C535.333 163.55 534.433 163.45 533.533 163.25C529.933 162.45 527.183 160.35 525.283 156.95C523.283 152.45 522.433 147.55 522.733 142.25C522.933 136.85 523.983 131.55 525.883 126.35C527.883 120.85 530.383 116.6 533.383 113.6C536.483 110.6 539.383 109.55 542.083 110.45C542.683 110.65 543.233 110.95 543.733 111.35C544.233 111.65 544.833 112.35 545.533 113.45C546.233 114.45 546.583 115.8 546.583 117.5C546.583 119.2 546.283 121.4 545.683 124.1C545.483 124.9 545.033 125.5 544.333 125.9C543.733 126.3 543.033 126.4 542.233 126.2C541.433 126 540.833 125.55 540.433 124.85C540.033 124.15 539.933 123.45 540.133 122.75C541.133 118.95 541.183 116.65 540.283 115.85C539.883 115.85 539.233 116.15 538.333 116.75C537.533 117.35 536.433 118.7 535.033 120.8C533.633 122.8 532.383 125.35 531.283 128.45C529.483 133.15 528.483 137.95 528.283 142.85C528.183 147.65 528.883 151.4 530.383 154.1C531.383 156 532.833 157.15 534.733 157.55C536.433 157.95 538.333 157.7 540.433 156.8C542.633 155.9 544.933 154.3 547.333 152C549.833 149.6 552.083 147.3 554.083 145.1C556.083 142.8 558.383 139.8 560.983 136.1C563.683 132.3 565.733 129.4 567.133 127.4C568.533 125.3 570.433 122.4 572.833 118.7C573.233 118.1 573.833 117.7 574.633 117.5Z" fill="#DB3EB1"/>
<path d="M620.218 118.1C621.018 117.9 621.718 118.05 622.318 118.55C623.018 118.95 623.418 119.55 623.518 120.35C623.618 121.15 623.468 121.85 623.068 122.45C611.768 138.25 601.468 149.45 592.168 156.05C588.468 158.65 584.818 159.95 581.218 159.95C578.418 159.95 575.968 159.2 573.868 157.7C572.668 156.8 571.618 155.6 570.718 154.1C569.718 152.6 568.868 150.5 568.168 147.8C567.468 145.1 567.368 141.55 567.868 137.15C568.268 132.75 569.368 127.75 571.168 122.15V122C573.968 112.9 577.368 105.7 581.368 100.4C585.368 95.1 588.968 92.4 592.168 92.3C594.468 92.2 595.968 93.2 596.668 95.3C597.768 98.2 596.468 102.3 592.768 107.6C589.068 112.9 583.618 118.6 576.418 124.7C575.218 128.6 574.368 132.2 573.868 135.5C573.368 138.8 573.168 141.45 573.268 143.45C573.468 145.35 573.818 147.05 574.318 148.55C574.918 149.95 575.418 150.95 575.818 151.55C576.318 152.15 576.818 152.65 577.318 153.05C580.318 155.25 584.168 154.65 588.868 151.25C597.668 145.05 607.468 134.35 618.268 119.15C618.768 118.55 619.418 118.2 620.218 118.1ZM591.118 98.6C587.618 100.8 584.168 105.55 580.768 112.85C586.568 107.05 590.018 102.3 591.118 98.6Z" fill="#DB3EB1"/>
<path d="M149.88 121.25C150.58 121.75 150.98 122.4 151.08 123.2C151.18 124 151.03 124.7 150.63 125.3C150.03 126.1 149.23 126.5 148.23 126.5C147.83 126.5 147.43 126.4 147.03 126.2C145.03 125.8 135.13 125.3 117.33 124.7C112.43 145.2 108.48 162.55 105.48 176.75C99.3799 205.05 96.3299 223.2 96.3299 231.2C96.7299 230.5 97.1799 229.75 97.6799 228.95C98.0799 228.25 98.6799 227.8 99.4799 227.6C100.28 227.4 100.98 227.5 101.58 227.9C102.28 228.3 102.73 228.85 102.93 229.55C103.13 230.35 103.03 231.1 102.63 231.8C99.7299 236.7 97.2299 239.15 95.1299 239.15C94.6299 239.15 94.1299 239.05 93.6299 238.85C92.4299 238.35 91.5799 237.25 91.0799 235.55C90.6799 233.95 90.5799 230.8 90.7799 226.1C91.0799 221.5 91.9799 215.1 93.4799 206.9C94.9799 198.7 97.1799 187.8 100.08 174.2C103.08 160.7 106.88 144.15 111.48 124.55C104.68 124.35 94.5299 124.1 81.0299 123.8C79.0299 123.7 76.7799 123.65 74.2799 123.65C59.1799 152.35 47.4799 172.4 39.1799 183.8C36.9799 186.7 34.7799 188.95 32.5799 190.55C30.3799 192.15 28.3299 193.05 26.4299 193.25C24.5299 193.55 22.9299 193.55 21.6299 193.25C20.3299 192.95 19.0799 192.45 17.8799 191.75C12.6799 188.75 8.52987 182.65 5.42987 173.45C2.42987 164.35 1.07987 154.25 1.37987 143.15C1.67987 131.95 3.62987 122.2 7.22987 113.9C11.7299 103.7 18.2799 96.85 26.8799 93.35C35.5799 89.85 45.7799 89.95 57.4799 93.65C58.2799 93.85 58.8299 94.3 59.1299 95C59.5299 95.7 59.5799 96.45 59.2799 97.25C59.0799 97.95 58.6299 98.5 57.9299 98.9C57.2299 99.3 56.4799 99.35 55.6799 99.05C51.7799 97.85 47.9799 97.1 44.2799 96.8C40.5799 96.5 36.6799 96.8 32.5799 97.7C28.5799 98.5 24.8299 100.5 21.3299 103.7C17.8299 106.8 14.8799 111 12.4799 116.3C10.6799 120.4 9.32987 124.95 8.42987 129.95C7.52987 134.95 7.07987 139.85 7.07987 144.65C7.07987 149.45 7.42987 154.15 8.12987 158.75C8.82987 163.45 9.77987 167.65 10.9799 171.35C12.2799 175.15 13.7299 178.4 15.3299 181.1C17.0299 183.8 18.8299 185.7 20.7299 186.8C24.9299 189.2 29.5299 187.05 34.5299 180.35C42.5299 169.55 53.6299 150.6 67.8299 123.5C41.8299 122.8 27.6299 122.2 25.2299 121.7C24.4299 121.5 23.7799 121.1 23.2799 120.5C22.8799 119.8 22.7299 119.05 22.8299 118.25C23.0299 117.45 23.4799 116.85 24.1799 116.45C24.8799 116.05 25.5799 115.9 26.2799 116C28.4799 116.5 43.3299 117.1 70.8299 117.8C75.2299 109.2 81.8799 96.2 90.7799 78.8C96.5799 67.2 101.33 57.8 105.03 50.6C108.73 43.4 112.33 36.55 115.83 30.05C119.43 23.55 122.28 18.65 124.38 15.35C126.48 11.95 128.48 9.05 130.38 6.65C132.28 4.15 133.83 2.60001 135.03 2.00001C136.33 1.3 137.58 1.15 138.78 1.55C140.38 2.15 141.38 3.5 141.78 5.6C142.28 7.7 142.33 10.6 141.93 14.3C141.33 20.8 139.58 30.5 136.68 43.4C135.48 49.1 132.43 62 127.53 82.1C123.73 97.9 120.78 110.2 118.68 119C138.18 119.6 148.58 120.35 149.88 121.25ZM81.1799 117.95C94.2799 118.35 104.83 118.65 112.83 118.85C115.53 107.25 118.53 94.55 121.83 80.75C126.73 60.75 129.83 47.9 131.13 42.2C135.03 24.5 136.78 13.15 136.38 8.15C134.78 9.75001 132.53 12.9 129.63 17.6C126.83 22.2 123.23 28.6 118.83 36.8C114.53 45 110.93 51.95 108.03 57.65C105.13 63.25 101.08 71.15 95.8799 81.35C87.6799 97.55 81.4799 109.75 77.2799 117.95C77.6799 117.95 78.2799 117.95 79.0799 117.95C79.9799 117.95 80.6799 117.95 81.1799 117.95Z" stroke="#DB3EB1" stroke-width="2" mask="url(#path-1-outside-1_5_5)"/>
<path d="M222.278 117.95C223.078 117.65 223.828 117.7 224.528 118.1C225.228 118.4 225.728 118.95 226.028 119.75C226.328 120.45 226.278 121.15 225.878 121.85C223.178 127.65 220.128 133.6 216.728 139.7C213.328 145.8 209.578 151.95 205.478 158.15C201.478 164.45 197.478 169.55 193.478 173.45C189.478 177.45 186.078 179.45 183.278 179.45C182.578 179.45 181.928 179.3 181.328 179C177.228 177.4 175.928 171.2 177.428 160.4C178.828 150.3 182.528 136 188.528 117.5C188.428 117.5 188.328 117.55 188.228 117.65C188.228 117.65 188.178 117.65 188.078 117.65C185.878 119.15 184.028 120.3 182.528 121.1C181.128 121.9 179.178 122.8 176.678 123.8C174.278 124.8 171.978 125.25 169.778 125.15C167.578 125.05 165.528 124.35 163.628 123.05C159.828 120.35 157.878 116.6 157.778 111.8C157.678 107 159.478 101.75 163.178 96.05C165.478 92.45 168.228 89.3 171.428 86.6C174.728 83.9 177.528 83.3 179.828 84.8C181.228 85.6 182.028 86.9 182.228 88.7C182.528 90.5 181.678 94 179.678 99.2C177.678 104.3 174.328 111 169.628 119.3C172.728 119.7 177.828 117.55 184.928 112.85C186.228 111.95 187.178 111.35 187.778 111.05C188.478 110.65 189.228 110.25 190.028 109.85C190.928 109.45 191.678 109.3 192.278 109.4C192.878 109.5 193.478 109.75 194.078 110.15C195.578 111.35 195.828 113.45 194.828 116.45C184.828 147.45 180.878 166.25 182.978 172.85C183.178 173.25 183.328 173.55 183.428 173.75C184.228 173.85 185.428 173.2 187.028 171.8C188.728 170.4 190.778 168.2 193.178 165.2C195.678 162.2 198.328 158.6 201.128 154.4C204.028 150.2 207.178 145.05 210.578 138.95C214.078 132.85 217.428 126.35 220.628 119.45C221.028 118.65 221.578 118.15 222.278 117.95ZM164.078 107.75C163.178 111.25 163.378 114.05 164.678 116.15C171.978 103.45 175.878 94.85 176.378 90.35C175.178 91.05 173.778 92.2 172.178 93.8C170.678 95.4 169.078 97.5 167.378 100.1C165.778 102.6 164.678 105.15 164.078 107.75Z" stroke="#DB3EB1" stroke-width="2" mask="url(#path-1-outside-1_5_5)"/>
<path d="M344.312 63.5C344.812 64.1 345.012 64.8 344.912 65.6C344.812 66.4 344.412 67.05 343.712 67.55C342.512 68.35 341.362 68.3 340.262 67.4C335.462 65.7 301.762 65.55 239.162 66.95C232.662 94.25 226.061 123.85 219.361 155.75C211.361 194.25 206.512 220.7 204.812 235.1C205.012 235.1 205.212 235.15 205.412 235.25C206.212 235.45 206.762 235.9 207.062 236.6C207.362 237.4 207.362 238.15 207.062 238.85C206.562 240.45 206.161 241.6 205.861 242.3C205.461 243.1 204.912 243.85 204.212 244.55C203.512 245.35 202.762 245.75 201.962 245.75C201.662 245.75 201.312 245.7 200.912 245.6C199.612 245.2 198.862 244.15 198.662 242.45C198.362 240.75 198.462 238.45 198.962 235.55C199.362 231.35 200.262 225.3 201.662 217.4C204.162 202.4 207.912 182.9 212.912 158.9C219.612 126.5 226.362 95.9 233.162 67.1C226.362 67.2 217.912 67.4 207.812 67.7C191.812 68.1 182.411 68.3 179.611 68.3C178.811 68.3 178.162 68.05 177.662 67.55C177.062 66.95 176.762 66.25 176.762 65.45C176.762 64.95 176.912 64.5 177.212 64.1C177.412 63.6 177.761 63.25 178.261 63.05C178.661 62.75 179.111 62.6 179.611 62.6C182.411 62.6 191.762 62.35 207.662 61.85C217.562 61.65 226.562 61.45 234.662 61.25C237.862 48.05 240.712 36.85 243.212 27.65C243.412 26.85 243.862 26.25 244.562 25.85C245.262 25.45 245.962 25.35 246.662 25.55C247.462 25.75 248.062 26.2 248.462 26.9C248.862 27.6 248.962 28.35 248.762 29.15C246.362 38.05 243.612 48.7 240.512 61.1C270.512 60.3 293.162 60 308.462 60.2C323.762 60.4 333.362 60.75 337.262 61.25C341.262 61.65 343.612 62.4 344.312 63.5Z" stroke="#DB3EB1" stroke-width="2" mask="url(#path-1-outside-1_5_5)"/>
<path d="M428.079 116.6C428.879 116.7 429.53 117.1 430.03 117.8C430.53 118.4 430.679 119.1 430.479 119.9C430.379 120.6 429.98 121.2 429.28 121.7C413.78 132.8 399.63 143.3 386.829 153.2C388.129 157.3 388.28 161.8 387.28 166.7C385.68 174.8 382.73 182.7 378.43 190.4C374.23 198.1 369.379 204.85 363.879 210.65C358.479 216.45 352.729 221.6 346.629 226.1C340.629 230.6 334.879 234.05 329.379 236.45C323.979 238.85 319.229 240.2 315.129 240.5C314.529 240.6 313.979 240.65 313.479 240.65C308.679 240.65 305.629 238.85 304.329 235.25C302.029 228.95 307.379 218.6 320.379 204.2C333.379 189.8 353.179 172.2 379.779 151.4C376.779 145.9 370.879 140.85 362.079 136.25C353.279 131.55 339.379 125.35 320.379 117.65C315.179 115.55 311.179 113.9 308.379 112.7C301.179 109.7 296.179 105.65 293.379 100.55C290.579 95.45 290.229 89.6 292.329 83C294.929 74.6 301.229 65.5 311.229 55.7C321.229 45.8 332.13 37.15 343.93 29.75C355.83 22.35 367.779 16.45 379.779 12.05C391.879 7.65 401.229 6.2 407.829 7.7C409.329 8 410.68 8.5 411.88 9.20001C413.18 9.8 414.48 10.75 415.78 12.05C417.08 13.35 417.979 15.15 418.479 17.45C419.079 19.65 419.18 22.3 418.78 25.4C418.68 25.9 418.48 26.35 418.18 26.75C417.88 27.15 417.479 27.45 416.979 27.65C416.479 27.85 415.979 27.9 415.479 27.8C414.679 27.7 414.03 27.35 413.53 26.75C413.03 26.05 412.83 25.3 412.93 24.5C413.53 20.8 413.18 18.15 411.88 16.55C410.68 14.95 408.929 13.9 406.629 13.4C402.929 12.5 397.929 12.8 391.629 14.3C385.329 15.8 378.279 18.35 370.479 21.95C362.779 25.45 354.93 29.8 346.93 35C334.03 43.1 323.179 51.6 314.379 60.5C305.579 69.4 300.079 77.45 297.879 84.65C294.579 94.95 298.829 102.55 310.629 107.45C313.329 108.55 317.329 110.15 322.629 112.25C329.229 114.95 334.129 117 337.329 118.4C340.529 119.7 344.73 121.5 349.93 123.8C355.13 126 359.13 127.9 361.93 129.5C364.73 131.1 367.779 132.95 371.079 135.05C374.379 137.15 377.08 139.25 379.18 141.35C381.28 143.35 383.03 145.5 384.43 147.8C397.03 138 410.879 127.75 425.979 117.05C426.679 116.55 427.379 116.4 428.079 116.6ZM381.729 165.5C382.329 162.5 382.379 159.7 381.879 157.1C360.579 173.8 343.68 188.5 331.18 201.2C323.88 208.7 318.279 215.35 314.379 221.15C310.479 227.05 308.929 231.1 309.729 233.3C310.129 234.5 311.78 235 314.68 234.8C318.08 234.5 322.229 233.25 327.129 231.05C332.129 228.85 337.429 225.65 343.029 221.45C348.729 217.25 354.129 212.45 359.229 207.05C364.429 201.75 369.08 195.4 373.18 188C377.28 180.7 380.129 173.2 381.729 165.5Z" stroke="#DB3EB1" stroke-width="2" mask="url(#path-1-outside-1_5_5)"/>
<path d="M456.501 96.35C459.501 97.25 461.501 99.65 462.501 103.55C463.501 107.35 463.351 111.8 462.051 116.9C459.651 125.7 453.751 133.85 444.351 141.35C440.451 144.55 436.151 147.35 431.451 149.75C427.851 164.45 423.851 182.7 419.451 204.5C414.951 226.4 411.651 243.7 409.551 256.4C409.251 258 408.301 258.8 406.701 258.8C406.501 258.8 406.351 258.8 406.251 258.8C405.751 258.7 405.301 258.5 404.901 258.2C404.501 257.9 404.201 257.5 404.001 257C403.801 256.5 403.751 256 403.851 255.5C406.451 238 412.201 204.2 421.101 154.1C419.901 154.5 418.701 154.85 417.501 155.15C416.701 155.45 415.951 155.4 415.251 155C414.551 154.6 414.101 154 413.901 153.2C413.701 152.4 413.801 151.65 414.201 150.95C414.601 150.25 415.201 149.8 416.001 149.6C418.001 149.1 420.051 148.4 422.151 147.5C422.851 144 423.801 138.8 425.001 131.9C430.201 102.7 432.851 87.45 432.951 86.15C432.951 85.35 433.201 84.7 433.701 84.2C434.301 83.6 434.951 83.3 435.651 83.3C436.451 83.2 437.151 83.45 437.751 84.05C438.351 84.55 438.701 85.2 438.801 86C438.801 86.8 436.451 100.4 431.751 126.8C433.251 122.6 434.751 118.8 436.251 115.4C437.851 112 439.301 109.2 440.601 107C442.001 104.8 443.401 102.95 444.801 101.45C446.201 99.95 447.451 98.85 448.551 98.15C449.651 97.35 450.701 96.8 451.701 96.5C452.801 96.1 453.701 95.95 454.401 96.05C455.201 96.05 455.901 96.15 456.501 96.35ZM456.501 115.4C457.401 111.5 457.601 108.35 457.101 105.95C456.701 103.55 455.951 102.2 454.851 101.9C454.751 101.8 454.601 101.75 454.401 101.75C453.801 101.75 453.101 102 452.301 102.5C451.601 102.9 450.651 103.75 449.451 105.05C448.251 106.25 447.001 107.85 445.701 109.85C444.501 111.75 443.101 114.4 441.501 117.8C440.001 121.2 438.501 125.1 437.001 129.5C436.001 132.5 434.801 136.7 433.401 142.1C439.101 138.6 444.001 134.55 448.101 129.95C452.301 125.35 455.101 120.5 456.501 115.4Z" stroke="#DB3EB1" stroke-width="2" mask="url(#path-1-outside-1_5_5)"/>
<path d="M530.265 118.55C531.065 118.25 531.815 118.3 532.515 118.7C533.215 119 533.665 119.55 533.865 120.35C534.165 121.05 534.165 121.75 533.865 122.45C523.165 144.55 513.615 155.6 505.215 155.6C504.715 155.6 504.165 155.55 503.565 155.45C496.865 154.15 492.715 145.15 491.115 128.45C486.215 135.05 481.865 140.45 478.065 144.65C474.665 148.25 471.765 149.5 469.365 148.4C466.965 147.5 465.815 144.9 465.915 140.6C465.915 137 466.715 132.7 468.315 127.7C469.915 122.7 472.265 117.85 475.365 113.15C478.465 108.45 481.815 105.5 485.415 104.3C490.715 102.4 495.615 104.15 500.115 109.55C500.615 110.15 500.815 110.85 500.715 111.65C500.715 112.45 500.415 113.1 499.815 113.6C499.215 114.1 498.515 114.35 497.715 114.35C496.915 114.25 496.265 113.9 495.765 113.3C492.265 109.1 488.715 108.3 485.115 110.9C481.015 113.8 477.565 119.05 474.765 126.65C472.065 134.15 471.015 139.5 471.615 142.7C472.215 142.2 472.915 141.55 473.715 140.75C477.715 136.45 482.615 130.3 488.415 122.3C489.715 120.5 490.615 119.25 491.115 118.55C491.915 117.55 492.965 117.25 494.265 117.65C495.565 117.95 496.265 118.8 496.365 120.2C496.565 125.1 496.965 129.45 497.565 133.25C498.165 137.05 498.765 139.95 499.365 141.95C499.965 143.85 500.665 145.45 501.465 146.75C502.265 148.05 502.865 148.9 503.265 149.3C503.765 149.6 504.265 149.75 504.765 149.75C506.165 150.05 507.915 149.4 510.015 147.8C512.215 146.1 514.965 142.9 518.265 138.2C521.665 133.4 525.115 127.35 528.615 120.05C529.015 119.25 529.565 118.75 530.265 118.55Z" stroke="#DB3EB1" stroke-width="2" mask="url(#path-1-outside-1_5_5)"/>
<path d="M574.633 117.5C575.433 117.3 576.133 117.45 576.733 117.95C577.433 118.35 577.883 118.95 578.083 119.75C578.283 120.55 578.133 121.25 577.633 121.85C574.333 126.95 571.433 131.25 568.933 134.75C566.533 138.25 563.783 142 560.683 146C557.583 149.9 554.733 153 552.133 155.3C549.633 157.7 546.983 159.65 544.183 161.15C541.383 162.75 538.733 163.55 536.233 163.55C535.333 163.55 534.433 163.45 533.533 163.25C529.933 162.45 527.183 160.35 525.283 156.95C523.283 152.45 522.433 147.55 522.733 142.25C522.933 136.85 523.983 131.55 525.883 126.35C527.883 120.85 530.383 116.6 533.383 113.6C536.483 110.6 539.383 109.55 542.083 110.45C542.683 110.65 543.233 110.95 543.733 111.35C544.233 111.65 544.833 112.35 545.533 113.45C546.233 114.45 546.583 115.8 546.583 117.5C546.583 119.2 546.283 121.4 545.683 124.1C545.483 124.9 545.033 125.5 544.333 125.9C543.733 126.3 543.033 126.4 542.233 126.2C541.433 126 540.833 125.55 540.433 124.85C540.033 124.15 539.933 123.45 540.133 122.75C541.133 118.95 541.183 116.65 540.283 115.85C539.883 115.85 539.233 116.15 538.333 116.75C537.533 117.35 536.433 118.7 535.033 120.8C533.633 122.8 532.383 125.35 531.283 128.45C529.483 133.15 528.483 137.95 528.283 142.85C528.183 147.65 528.883 151.4 530.383 154.1C531.383 156 532.833 157.15 534.733 157.55C536.433 157.95 538.333 157.7 540.433 156.8C542.633 155.9 544.933 154.3 547.333 152C549.833 149.6 552.083 147.3 554.083 145.1C556.083 142.8 558.383 139.8 560.983 136.1C563.683 132.3 565.733 129.4 567.133 127.4C568.533 125.3 570.433 122.4 572.833 118.7C573.233 118.1 573.833 117.7 574.633 117.5Z" stroke="#DB3EB1" stroke-width="2" mask="url(#path-1-outside-1_5_5)"/>
<path d="M620.218 118.1C621.018 117.9 621.718 118.05 622.318 118.55C623.018 118.95 623.418 119.55 623.518 120.35C623.618 121.15 623.468 121.85 623.068 122.45C611.768 138.25 601.468 149.45 592.168 156.05C588.468 158.65 584.818 159.95 581.218 159.95C578.418 159.95 575.968 159.2 573.868 157.7C572.668 156.8 571.618 155.6 570.718 154.1C569.718 152.6 568.868 150.5 568.168 147.8C567.468 145.1 567.368 141.55 567.868 137.15C568.268 132.75 569.368 127.75 571.168 122.15V122C573.968 112.9 577.368 105.7 581.368 100.4C585.368 95.1 588.968 92.4 592.168 92.3C594.468 92.2 595.968 93.2 596.668 95.3C597.768 98.2 596.468 102.3 592.768 107.6C589.068 112.9 583.618 118.6 576.418 124.7C575.218 128.6 574.368 132.2 573.868 135.5C573.368 138.8 573.168 141.45 573.268 143.45C573.468 145.35 573.818 147.05 574.318 148.55C574.918 149.95 575.418 150.95 575.818 151.55C576.318 152.15 576.818 152.65 577.318 153.05C580.318 155.25 584.168 154.65 588.868 151.25C597.668 145.05 607.468 134.35 618.268 119.15C618.768 118.55 619.418 118.2 620.218 118.1ZM591.118 98.6C587.618 100.8 584.168 105.55 580.768 112.85C586.568 107.05 590.018 102.3 591.118 98.6Z" stroke="#DB3EB1" stroke-width="2" mask="url(#path-1-outside-1_5_5)"/>
</svg>
